<?xml version="1.0" encoding="UTF-8"?>
<svg xmlns="http://www.w3.org/2000/svg" viewBox="0 0 2482.42 3767.16">
  <defs>
    <style>
      .cls-1 {
        fill: #7bc043;
      }

      .cls-2 {
        fill: #f2e8d5;
      }

      .cls-3 {
        fill: #1b1f23;
      }
    </style>
  </defs>
  <rect class="cls-3" width="2482.42" height="3767.16"/>
  <g id="Layer_1" data-name="Layer 1">
    <g>
      <path class="cls-2" d="M1641.96,2160.01l78.45-75.19c86.14-82.57,166.16-167.52,233.48-266.6,114.76-168.89,181.28-362.44,192.98-568.56l-259.66-.4c-10.48-.02-24.25-11.39-22.44-21.59,2.99-11.06,15.49-18.62,21.24-29.36,28.37-53.03,22.53-113.37-14.42-161.71-32.53-42.56-91.86-66.43-147.93-52.83-47.89,11.61-83.22,47.21-98.43,86.17-19.71,50.49-13.73,103.91,17.93,143.42,5.71,7.13,12.37,10.94,10.85,19.5-1.41,7.97-8.75,15.04-19.98,15.03l-375.21-.44.79-379.77c57.14,64.69,142.08,67.72,204.15,15.35,68.32-66.2,61.61-183.33-19.28-238.11-48.56-32.88-114.05-25.68-158.3,8.82-10.14,7.91-15.88,16.57-29.06,20.93l.11-595.14,88.99,4.76c291.23,15.58,579.69,177.28,766.24,400.25,97.02,115.95,170.23,245.53,213.74,390.23,94.52,314.35,60.9,645.11-93.95,933.83-64.85,120.91-147.38,227.27-241.55,326.25l-107.05,105.41-81.18,78.53-32.06,32.51c-124.29,126.01-220.27,287.06-213.38,471.51l-229.09.51c-2.5-219.47,95.52-423.17,240.38-586.38l73.66-76.92Z"/>
      <path class="cls-1" d="M1434.11,1541.52c41.32,35.63,54.61,88.92,44.76,142.07-8.44,45.54-42.94,89.45-92.07,107.76-62.06,23.12-126.66,2.8-172.45-46.34l-.38,165.25c0,2.71-2.15,5.84-3.44,6.83-7.58,5.8-30.61-63.92-100.87-92.72-56.48-23.15-114.41-14.89-160.43,26.76-49.48,44.78-55.64,125.78-14.5,178.3,23.74,30.3,53.98,45.32,91.8,54.49-25.9,66.48-56.31,126.96-91.79,188.06-78.96-18.07-148.49-46.77-217.86-84.04-161.27-86.65-294.47-209.75-401.79-357.86-114.83-158.49-189.1-338.77-206.16-535.24-29.5-339.73,62.4-614.66,296.04-861.19,213.49-225.27,489.08-344.01,800.1-353.54l3.68,68.64,1.87,162.28c-208.59-.37-410.81,90.65-562.27,229.19l-64.61,64.52c-180.49,198.63-245.48,425.89-222.76,694.75,18.01,213.1,119.14,410.36,282.22,551.63l-96.74-148.39c-79.33-138.05-123.01-291.4-117.91-453.27l337.26,1.39c-28.87,30.58-46.26,63.65-43.33,104.09.87,49.92,32.3,92.23,73.28,109.87,47.88,20.6,98.79,9.99,135.62-24.34,53.41-52.31,55.77-133.97-5.05-189.12l287.54-1.8.51,310.44c58.75-63.53,152.78-76.17,219.73-18.44Z"/>
      <g>
        <path class="cls-1" d="M1503.75,3330.15l-560.26-.54c-46.82-.04-79.57-52.91-76.55-91.44,3.83-48.93,42.32-82.28,91.83-82.18l549.9,1.2c47.35.1,79.35,44.25,79.07,87.83-.27,42.01-33.43,85.16-84,85.12Z"/>
        <path class="cls-1" d="M1571.37,2936.95c22.46,24.04,26.92,60.27,13.7,90.07-12.2,27.51-40.25,50.77-74.94,50.71l-567.38-.96c-45.05-.08-74.67-44.25-75.27-84.15-.65-42.71,32.33-85.78,79.06-85.87l559.41-1.08c26.73-.05,46.58,11.12,65.42,31.28Z"/>
        <circle class="cls-1" cx="1228.47" cy="3537.26" r="150.38"/>
      </g>
    </g>
  </g>
</svg>