<?xml version="1.0" encoding="UTF-8"?>
<svg xmlns="http://www.w3.org/2000/svg" viewBox="0 0 915 515">
  <defs>
    <style>
      .cls-1 {
        fill: #7bc043;
      }

      .cls-2 {
        fill: #f2e8d5;
      }

      .cls-3 {
        fill: #1b1f23;
      }
    </style>
  </defs>
  <rect class="cls-3" width="915" height="515"/>
  <g id="Layer_1" data-name="Layer 1">
    <g>
      <path class="cls-2" d="M249.78,291.98l9.78-9.38c10.74-10.3,20.72-20.89,29.12-33.25,14.31-21.06,22.61-45.2,24.07-70.91l-32.38-.05c-1.31,0-3.02-1.42-2.8-2.69.37-1.38,1.93-2.32,2.65-3.66,3.54-6.61,2.81-14.14-1.8-20.17-4.06-5.31-11.46-8.29-18.45-6.59-5.97,1.45-10.38,5.89-12.28,10.75-2.46,6.3-1.71,12.96,2.24,17.89.71.89,1.54,1.36,1.35,2.43-.18.99-1.09,1.88-2.49,1.87l-46.8-.05.1-47.36c7.13,8.07,17.72,8.45,25.46,1.91,8.52-8.26,7.68-22.86-2.4-29.7-6.06-4.1-14.22-3.2-19.74,1.1-1.26.99-1.98,2.07-3.62,2.61V32.5s11.11.59,11.11.59c36.32,1.94,72.3,22.11,95.56,49.92,12.1,14.46,21.23,30.62,26.66,48.67,11.79,39.21,7.6,80.46-11.72,116.47-8.09,15.08-18.38,28.34-30.13,40.69l-13.35,13.15-10.12,9.79-4,4.05c-15.5,15.72-27.47,35.8-26.61,58.81l-28.57.06c-.31-27.37,11.91-52.78,29.98-73.13l9.19-9.59h0Z"/>
      <path class="cls-1" d="M223.86,214.84c5.15,4.44,6.81,11.09,5.58,17.72-1.05,5.68-5.36,11.16-11.48,13.44-7.74,2.88-15.8.35-21.51-5.78l-.05,20.61c0,.34-.27.73-.43.85-.95.72-3.82-7.97-12.58-11.56-7.04-2.89-14.27-1.86-20.01,3.34-6.17,5.58-6.94,15.69-1.81,22.24,2.96,3.78,6.73,5.65,11.45,6.8-3.23,8.29-7.02,15.83-11.45,23.45-9.85-2.25-18.52-5.83-27.17-10.48-20.11-10.81-36.73-26.16-50.11-44.63-14.32-19.77-23.58-42.25-25.71-66.75-3.68-42.37,7.78-76.66,36.92-107.41,26.63-28.1,61-42.9,99.79-44.09l.46,8.56.23,20.24c-26.02-.05-51.24,11.31-70.13,28.58l-8.06,8.05c-22.51,24.77-30.62,53.12-27.78,86.65,2.25,26.58,14.86,51.18,35.2,68.8l-12.07-18.51c-9.89-17.22-15.34-36.34-14.71-56.53l42.06.17c-3.6,3.81-5.77,7.94-5.4,12.98.11,6.23,4.03,11.5,9.14,13.7,5.97,2.57,12.32,1.25,16.91-3.04,6.66-6.52,6.96-16.71-.63-23.59l35.86-.22.06,38.72c7.33-7.92,19.05-9.5,27.4-2.3h0Z"/>
      <path class="cls-1" d="M232.55,437.91l-69.88-.07c-5.84,0-9.92-6.6-9.55-11.4.48-6.1,5.28-10.26,11.45-10.25l68.58.15c5.91.01,9.9,5.52,9.86,10.95-.03,5.24-4.17,10.62-10.48,10.62h0Z"/>
      <path class="cls-1" d="M240.98,388.87c2.8,3,3.36,7.52,1.71,11.23-1.52,3.43-5.02,6.33-9.35,6.32l-70.76-.12c-5.62,0-9.31-5.52-9.39-10.5-.08-5.33,4.03-10.7,9.86-10.71l69.77-.13c3.33,0,5.81,1.39,8.16,3.9h0Z"/>
      <circle class="cls-1" cx="198.21" cy="463.74" r="18.76"/>
    </g>
    <g>
      <path class="cls-1" d="M401.9,253.09h-43.34v-18.85h104.55v18.85h-43.34v132.83h-17.88v-132.83Z"/>
      <path class="cls-1" d="M487.01,234.23h18v152.99h-18v-152.99Z"/>
      <path class="cls-1" d="M629.68,287.11c0,32.94-19.86,52.87-52.73,52.87h-31.24v45.94h-18.06v-151.68h49.3c32.86,0,52.73,19.94,52.73,52.87ZM611.62,287.11c0-21.67-12.1-34.02-35.21-34.02h-30.7v68.04h30.7c23.11,0,35.21-12.35,35.21-34.02Z"/>
      <path class="cls-1" d="M632.48,368.58l6.68-16.9c9.39,10.18,25.46,17.55,41.71,17.55,21.85,0,31.24-10.18,31.24-23.4,0-37.05-76.56-13.65-76.56-69.99,0-23.4,15.17-43.34,48.39-43.34,14.81,0,30.15,4.77,40.63,13.43l-5.96,17.33c-11.02-8.45-23.47-12.35-34.67-12.35-21.49,0-30.7,10.83-30.7,24.05,0,37.05,76.56,13.87,76.56,69.56,0,23.19-15.53,43.12-48.93,43.12-19.32,0-38.28-7.8-48.39-19.07Z"/>
      <path class="cls-1" d="M834.46,367.06v18.85h-91.73v-151.68h89.2v18.85h-71.14v46.59h63.38v18.42h-63.38v48.97h73.67Z"/>
      <path class="cls-2" d="M370.15,423.05c0-13.65,10.45-23.33,24.67-23.33,8.27,0,14.93,3.01,19.29,8.46l-8.07,7.31c-2.82-3.4-6.28-5.25-10.57-5.25-7.37,0-12.5,5.13-12.5,12.82s5.13,12.82,12.5,12.82c4.29,0,7.75-1.86,10.57-5.25l8.07,7.31c-4.36,5.45-11.02,8.46-19.29,8.46-14.23,0-24.67-9.68-24.67-23.33Z"/>
      <path class="cls-2" d="M449.47,436.77h-18.97l-3.52,8.72h-12.95l19.8-44.86h12.5l19.87,44.86h-13.2l-3.52-8.72ZM445.75,427.41l-5.77-14.35-5.77,14.35h11.53Z"/>
      <path class="cls-2" d="M469.15,400.62h12.69v34.8h21.4v10.06h-34.09v-44.86Z"/>
      <path class="cls-2" d="M523.75,441.45l4.17-9.36c3.97,2.63,9.61,4.42,14.8,4.42s7.31-1.47,7.31-3.65c0-7.11-25.51-1.92-25.51-18.58,0-8.01,6.54-14.55,19.87-14.55,5.83,0,11.86,1.35,16.28,3.91l-3.91,9.42c-4.29-2.31-8.52-3.46-12.43-3.46-5.32,0-7.24,1.79-7.24,4.04,0,6.86,25.44,1.73,25.44,18.26,0,7.82-6.54,14.48-19.87,14.48-7.37,0-14.68-1.99-18.9-4.93Z"/>
      <path class="cls-2" d="M577.3,410.69h-13.78v-10.06h40.18v10.06h-13.71v34.8h-12.69v-34.8Z"/>
      <path class="cls-2" d="M632.58,436.77h-18.97l-3.52,8.72h-12.95l19.8-44.86h12.5l19.87,44.86h-13.2l-3.52-8.72ZM628.86,427.41l-5.77-14.35-5.77,14.35h11.53Z"/>
      <path class="cls-2" d="M656.52,410.69h-13.78v-10.06h40.18v10.06h-13.71v34.8h-12.69v-34.8Z"/>
      <path class="cls-2" d="M722.38,435.68v9.8h-36.01v-44.86h35.18v9.8h-22.62v7.56h19.93v9.48h-19.93v8.2h23.45Z"/>
      <path class="cls-2" d="M748.08,400.62h12.69v34.8h21.4v10.06h-34.09v-44.86Z"/>
      <path class="cls-2" d="M818.78,436.77h-18.97l-3.52,8.72h-12.95l19.8-44.86h12.5l19.87,44.86h-13.2l-3.52-8.72ZM815.06,427.41l-5.77-14.35-5.77,14.35h11.53Z"/>
      <path class="cls-1" d="M345.29,479.28l1.36-2.86c1.9,1.72,5.16,2.97,8.46,2.97,4.43,0,6.34-1.72,6.34-3.96,0-6.26-15.53-2.31-15.53-11.83,0-3.95,3.08-7.32,9.82-7.32,3,0,6.12.81,8.24,2.27l-1.21,2.93c-2.23-1.43-4.76-2.09-7.03-2.09-4.36,0-6.23,1.83-6.23,4.07,0,6.26,15.53,2.34,15.53,11.76,0,3.92-3.15,7.29-9.93,7.29-3.92,0-7.76-1.32-9.82-3.22Z"/>
      <path class="cls-1" d="M367.59,469.39c0-7.51,5.79-13.11,13.66-13.11s13.59,5.57,13.59,13.11-5.79,13.11-13.59,13.11-13.66-5.6-13.66-13.11ZM391.18,469.39c0-5.68-4.25-9.85-9.93-9.85s-10,4.18-10,9.85,4.25,9.85,10,9.85,9.93-4.18,9.93-9.85Z"/>
      <path class="cls-1" d="M399.75,456.57h3.66v22.45h13.88v3.19h-17.54v-25.64Z"/>
      <path class="cls-1" d="M439.78,456.57l-11.24,25.64h-3.63l-11.28-25.64h3.96l9.23,21.06,9.3-21.06h3.66Z"/>
      <path class="cls-1" d="M461.56,479.02v3.19h-18.6v-25.64h18.09v3.19h-14.43v7.87h12.86v3.11h-12.86v8.28h14.94Z"/>
      <path class="cls-1" d="M465.33,479.9c0-1.46,1.14-2.49,2.49-2.49s2.42,1.03,2.42,2.49-1.1,2.53-2.42,2.53-2.49-1.06-2.49-2.53Z"/>
      <path class="cls-1" d="M506.35,465.51c0,5.57-4.03,8.94-10.69,8.94h-6.34v7.76h-3.66v-25.64h10c6.67,0,10.69,3.37,10.69,8.94ZM502.69,465.51c0-3.66-2.45-5.75-7.14-5.75h-6.23v11.5h6.23c4.69,0,7.14-2.09,7.14-5.75Z"/>
      <path class="cls-1" d="M527.99,482.21l-5.53-7.87c-.51.04-1.06.07-1.61.07h-6.34v7.8h-3.66v-25.64h10c6.67,0,10.69,3.37,10.69,8.94,0,3.95-2.05,6.81-5.64,8.09l6.08,8.61h-3.99ZM527.88,465.51c0-3.66-2.45-5.75-7.14-5.75h-6.23v11.54h6.23c4.69,0,7.14-2.12,7.14-5.79Z"/>
      <path class="cls-1" d="M555.34,479.02v3.19h-18.6v-25.64h18.09v3.19h-14.43v7.87h12.86v3.11h-12.86v8.28h14.94Z"/>
      <path class="cls-1" d="M580.62,465.51c0,5.57-4.03,8.94-10.69,8.94h-6.34v7.76h-3.66v-25.64h10c6.67,0,10.69,3.37,10.69,8.94ZM576.95,465.51c0-3.66-2.45-5.75-7.14-5.75h-6.23v11.5h6.23c4.69,0,7.14-2.09,7.14-5.75Z"/>
      <path class="cls-1" d="M599.97,475.8h-13.62l-2.82,6.41h-3.77l11.61-25.64h3.63l11.65,25.64h-3.85l-2.82-6.41ZM598.69,472.87l-5.53-12.56-5.53,12.56h11.06Z"/>
      <path class="cls-1" d="M626.95,482.21l-5.53-7.87c-.51.04-1.06.07-1.61.07h-6.34v7.8h-3.66v-25.64h10c6.67,0,10.69,3.37,10.69,8.94,0,3.95-2.05,6.81-5.64,8.09l6.08,8.61h-3.99ZM626.84,465.51c0-3.66-2.45-5.75-7.14-5.75h-6.23v11.54h6.23c4.69,0,7.14-2.12,7.14-5.79Z"/>
      <path class="cls-1" d="M654.31,479.02v3.19h-18.6v-25.64h18.09v3.19h-14.43v7.87h12.86v3.11h-12.86v8.28h14.94Z"/>
      <path class="cls-1" d="M658.08,479.9c0-1.46,1.14-2.49,2.49-2.49s2.42,1.03,2.42,2.49-1.1,2.53-2.42,2.53-2.49-1.06-2.49-2.53Z"/>
      <path class="cls-1" d="M676.06,479.28l1.35-2.86c1.9,1.72,5.16,2.97,8.46,2.97,4.43,0,6.34-1.72,6.34-3.96,0-6.26-15.53-2.31-15.53-11.83,0-3.95,3.08-7.32,9.81-7.32,3,0,6.12.81,8.24,2.27l-1.21,2.93c-2.23-1.43-4.76-2.09-7.03-2.09-4.36,0-6.23,1.83-6.23,4.07,0,6.26,15.53,2.34,15.53,11.76,0,3.92-3.15,7.29-9.93,7.29-3.92,0-7.76-1.32-9.81-3.22Z"/>
      <path class="cls-1" d="M700.01,471.15v-14.58h3.66v14.43c0,5.68,2.6,8.24,7.22,8.24s7.25-2.56,7.25-8.24v-14.43h3.55v14.58c0,7.44-4.07,11.35-10.84,11.35s-10.84-3.92-10.84-11.35Z"/>
      <path class="cls-1" d="M726.32,469.39c0-7.58,5.79-13.11,13.59-13.11,3.96,0,7.4,1.35,9.74,3.99l-2.38,2.31c-1.98-2.09-4.4-3.04-7.22-3.04-5.79,0-10.07,4.18-10.07,9.85s4.29,9.85,10.07,9.85c2.82,0,5.24-.99,7.22-3.08l2.38,2.31c-2.34,2.64-5.79,4.03-9.78,4.03-7.76,0-13.55-5.53-13.55-13.11Z"/>
      <path class="cls-1" d="M751.43,469.39c0-7.58,5.79-13.11,13.59-13.11,3.96,0,7.4,1.35,9.74,3.99l-2.38,2.31c-1.98-2.09-4.4-3.04-7.22-3.04-5.79,0-10.07,4.18-10.07,9.85s4.29,9.85,10.07,9.85c2.82,0,5.24-.99,7.22-3.08l2.38,2.31c-2.34,2.64-5.79,4.03-9.78,4.03-7.76,0-13.55-5.53-13.55-13.11Z"/>
      <path class="cls-1" d="M797.52,479.02v3.19h-18.6v-25.64h18.09v3.19h-14.43v7.87h12.86v3.11h-12.86v8.28h14.94Z"/>
      <path class="cls-1" d="M820.71,479.02v3.19h-18.6v-25.64h18.09v3.19h-14.43v7.87h12.86v3.11h-12.86v8.28h14.94Z"/>
      <path class="cls-1" d="M825.3,456.57h10.8c8.24,0,13.84,5.2,13.84,12.82s-5.6,12.82-13.84,12.82h-10.8v-25.64ZM835.88,479.02c6.34,0,10.4-3.88,10.4-9.63s-4.07-9.63-10.4-9.63h-6.92v19.26h6.92Z"/>
      <path class="cls-1" d="M852.17,479.9c0-1.46,1.14-2.49,2.49-2.49s2.42,1.03,2.42,2.49-1.1,2.53-2.42,2.53-2.49-1.06-2.49-2.53Z"/>
    </g>
  </g>
</svg>