<?xml version="1.0" encoding="UTF-8"?>
<svg xmlns="http://www.w3.org/2000/svg" viewBox="0 0 915 515">
  <defs>
    <style>
      .cls-1 {
        fill: #1b1f23;
      }

      .cls-2 {
        fill: #7bc043;
      }

      .cls-3 {
        fill: #f2e8d5;
      }
    </style>
  </defs>
  <rect class="cls-1" width="915" height="515"/>
  <g id="Layer_1" data-name="Layer 1">
    <g>
      <path class="cls-2" d="M138.64,90.44h-69.34v-30.16h167.28v30.16h-69.34v212.53h-28.6V90.44Z"/>
      <path class="cls-2" d="M274.81,60.27h28.79v244.78h-28.79V60.27Z"/>
      <path class="cls-2" d="M503.09,144.87c0,52.7-31.78,84.59-84.36,84.59h-49.98v73.5h-28.89V60.27h78.87c52.58,0,84.36,31.9,84.36,84.59ZM474.2,144.87c0-34.67-19.36-54.43-56.34-54.43h-49.12v108.86h49.12c36.98,0,56.34-19.76,56.34-54.43Z"/>
      <path class="cls-2" d="M507.57,275.23l10.69-27.04c15.02,16.29,40.74,28.08,66.74,28.08,34.96,0,49.98-16.29,49.98-37.44,0-59.29-122.5-21.84-122.5-111.98,0-37.44,24.27-69.34,77.43-69.34,23.69,0,48.25,7.63,65,21.5l-9.53,27.74c-17.62-13.52-37.56-19.76-55.47-19.76-34.38,0-49.12,17.34-49.12,38.48,0,59.29,122.5,22.19,122.5,111.29,0,37.1-24.85,68.99-78.29,68.99-30.91,0-61.25-12.48-77.43-30.51Z"/>
      <path class="cls-2" d="M830.74,272.8v30.16h-146.77V60.27h142.72v30.16h-113.83v74.54h101.41v29.47h-101.41v78.35h117.88Z"/>
      <path class="cls-3" d="M87.85,362.39c0-21.84,16.71-37.32,39.48-37.32,13.23,0,23.89,4.82,30.86,13.53l-12.92,11.69c-4.51-5.43-10.05-8.41-16.92-8.41-11.79,0-19.99,8.2-19.99,20.51s8.2,20.51,19.99,20.51c6.87,0,12.41-2.97,16.92-8.41l12.92,11.69c-6.97,8.72-17.64,13.53-30.86,13.53-22.76,0-39.48-15.48-39.48-37.32Z"/>
      <path class="cls-3" d="M214.75,384.33h-30.35l-5.64,13.94h-20.71l31.68-71.77h19.99l31.79,71.77h-21.12l-5.64-13.94ZM208.8,369.36l-9.23-22.97-9.23,22.97h18.46Z"/>
      <path class="cls-3" d="M246.24,326.5h20.3v55.68h34.25v16.1h-54.55v-71.77Z"/>
      <path class="cls-3" d="M333.6,391.81l6.66-14.97c6.36,4.2,15.38,7.07,23.68,7.07s11.69-2.36,11.69-5.84c0-11.38-40.81-3.08-40.81-29.73,0-12.82,10.46-23.27,31.78-23.27,9.33,0,18.97,2.15,26.04,6.25l-6.26,15.07c-6.87-3.69-13.64-5.54-19.89-5.54-8.51,0-11.59,2.87-11.59,6.46,0,10.97,40.71,2.77,40.71,29.22,0,12.51-10.46,23.17-31.78,23.17-11.79,0-23.48-3.18-30.25-7.9Z"/>
      <path class="cls-3" d="M419.29,342.6h-22.05v-16.1h64.29v16.1h-21.94v55.68h-20.3v-55.68Z"/>
      <path class="cls-3" d="M507.74,384.33h-30.35l-5.64,13.94h-20.71l31.68-71.77h19.99l31.79,71.77h-21.12l-5.64-13.94ZM501.79,369.36l-9.23-22.97-9.23,22.97h18.46Z"/>
      <path class="cls-3" d="M546.05,342.6h-22.05v-16.1h64.29v16.1h-21.94v55.68h-20.3v-55.68Z"/>
      <path class="cls-3" d="M651.42,382.58v15.69h-57.62v-71.77h56.29v15.69h-36.19v12.1h31.89v15.17h-31.89v13.12h37.53Z"/>
      <path class="cls-3" d="M692.54,326.5h20.3v55.68h34.25v16.1h-54.55v-71.77Z"/>
      <path class="cls-3" d="M805.65,384.33h-30.35l-5.64,13.94h-20.71l31.68-71.77h19.99l31.79,71.77h-21.12l-5.64-13.94ZM799.71,369.36l-9.23-22.97-9.23,22.97h18.46Z"/>
      <path class="cls-2" d="M48.06,452.34l2.17-4.57c3.05,2.75,8.26,4.75,13.54,4.75,7.09,0,10.14-2.75,10.14-6.33,0-10.02-24.85-3.69-24.85-18.93,0-6.33,4.92-11.72,15.71-11.72,4.81,0,9.79,1.29,13.18,3.63l-1.93,4.69c-3.57-2.29-7.62-3.34-11.25-3.34-6.97,0-9.96,2.93-9.96,6.5,0,10.02,24.85,3.75,24.85,18.81,0,6.27-5.04,11.66-15.88,11.66-6.27,0-12.42-2.11-15.71-5.16Z"/>
      <path class="cls-2" d="M83.75,436.52c0-12.01,9.26-20.98,21.86-20.98s21.74,8.91,21.74,20.98-9.26,20.98-21.74,20.98-21.86-8.97-21.86-20.98ZM121.49,436.52c0-9.08-6.8-15.76-15.88-15.76s-16,6.68-16,15.76,6.8,15.76,16,15.76,15.88-6.68,15.88-15.76Z"/>
      <path class="cls-2" d="M135.21,416.01h5.86v35.92h22.21v5.1h-28.07v-41.02Z"/>
      <path class="cls-2" d="M199.26,416.01l-17.99,41.02h-5.8l-18.05-41.02h6.33l14.77,33.7,14.88-33.7h5.86Z"/>
      <path class="cls-2" d="M234.1,451.93v5.1h-29.77v-41.02h28.95v5.1h-23.09v12.6h20.57v4.98h-20.57v13.24h23.91Z"/>
      <path class="cls-2" d="M240.14,453.34c0-2.34,1.82-3.98,3.98-3.98s3.87,1.64,3.87,3.98-1.76,4.04-3.87,4.04-3.98-1.7-3.98-4.04Z"/>
      <path class="cls-2" d="M305.77,430.31c0,8.91-6.45,14.3-17.11,14.3h-10.14v12.42h-5.86v-41.02h16c10.66,0,17.11,5.39,17.11,14.3ZM299.91,430.31c0-5.86-3.93-9.2-11.43-9.2h-9.96v18.4h9.96c7.5,0,11.43-3.34,11.43-9.2Z"/>
      <path class="cls-2" d="M340.38,457.03l-8.85-12.6c-.82.06-1.7.12-2.58.12h-10.14v12.48h-5.86v-41.02h16c10.66,0,17.11,5.39,17.11,14.3,0,6.33-3.28,10.9-9.02,12.95l9.73,13.77h-6.39ZM340.21,430.31c0-5.86-3.93-9.2-11.43-9.2h-9.96v18.46h9.96c7.5,0,11.43-3.4,11.43-9.26Z"/>
      <path class="cls-2" d="M384.15,451.93v5.1h-29.77v-41.02h28.95v5.1h-23.09v12.6h20.57v4.98h-20.57v13.24h23.91Z"/>
      <path class="cls-2" d="M424.59,430.31c0,8.91-6.45,14.3-17.11,14.3h-10.14v12.42h-5.86v-41.02h16c10.66,0,17.11,5.39,17.11,14.3ZM418.73,430.31c0-5.86-3.93-9.2-11.43-9.2h-9.96v18.4h9.96c7.5,0,11.43-3.34,11.43-9.2Z"/>
      <path class="cls-2" d="M455.56,446.78h-21.8l-4.51,10.26h-6.04l18.58-41.02h5.8l18.63,41.02h-6.15l-4.51-10.26ZM453.51,442.09l-8.85-20.1-8.85,20.1h17.7Z"/>
      <path class="cls-2" d="M498.73,457.03l-8.85-12.6c-.82.06-1.7.12-2.58.12h-10.14v12.48h-5.86v-41.02h16c10.66,0,17.11,5.39,17.11,14.3,0,6.33-3.28,10.9-9.02,12.95l9.73,13.77h-6.39ZM498.56,430.31c0-5.86-3.93-9.2-11.43-9.2h-9.96v18.46h9.96c7.5,0,11.43-3.4,11.43-9.26Z"/>
      <path class="cls-2" d="M542.5,451.93v5.1h-29.77v-41.02h28.95v5.1h-23.09v12.6h20.57v4.98h-20.57v13.24h23.91Z"/>
      <path class="cls-2" d="M548.53,453.34c0-2.34,1.82-3.98,3.98-3.98s3.87,1.64,3.87,3.98-1.76,4.04-3.87,4.04-3.98-1.7-3.98-4.04Z"/>
      <path class="cls-2" d="M577.3,452.34l2.17-4.57c3.05,2.75,8.26,4.75,13.54,4.75,7.09,0,10.14-2.75,10.14-6.33,0-10.02-24.85-3.69-24.85-18.93,0-6.33,4.92-11.72,15.7-11.72,4.81,0,9.79,1.29,13.18,3.63l-1.93,4.69c-3.57-2.29-7.62-3.34-11.25-3.34-6.97,0-9.96,2.93-9.96,6.5,0,10.02,24.85,3.75,24.85,18.81,0,6.27-5.04,11.66-15.88,11.66-6.27,0-12.42-2.11-15.7-5.16Z"/>
      <path class="cls-2" d="M615.62,439.33v-23.32h5.86v23.09c0,9.08,4.16,13.18,11.54,13.18s11.6-4.1,11.6-13.18v-23.09h5.68v23.32c0,11.9-6.5,18.17-17.35,18.17s-17.35-6.27-17.35-18.17Z"/>
      <path class="cls-2" d="M657.72,436.52c0-12.13,9.26-20.98,21.74-20.98,6.33,0,11.84,2.17,15.59,6.39l-3.81,3.69c-3.17-3.34-7.03-4.86-11.54-4.86-9.26,0-16.11,6.68-16.11,15.76s6.86,15.76,16.11,15.76c4.51,0,8.38-1.58,11.54-4.92l3.81,3.69c-3.75,4.22-9.26,6.45-15.65,6.45-12.42,0-21.68-8.85-21.68-20.98Z"/>
      <path class="cls-2" d="M697.9,436.52c0-12.13,9.26-20.98,21.74-20.98,6.33,0,11.84,2.17,15.59,6.39l-3.81,3.69c-3.17-3.34-7.03-4.86-11.54-4.86-9.26,0-16.11,6.68-16.11,15.76s6.86,15.76,16.11,15.76c4.51,0,8.38-1.58,11.54-4.92l3.81,3.69c-3.75,4.22-9.26,6.45-15.65,6.45-12.42,0-21.68-8.85-21.68-20.98Z"/>
      <path class="cls-2" d="M771.64,451.93v5.1h-29.77v-41.02h28.95v5.1h-23.09v12.6h20.57v4.98h-20.57v13.24h23.91Z"/>
      <path class="cls-2" d="M808.75,451.93v5.1h-29.77v-41.02h28.95v5.1h-23.09v12.6h20.57v4.98h-20.57v13.24h23.91Z"/>
      <path class="cls-2" d="M816.08,416.01h17.29c13.18,0,22.15,8.32,22.15,20.51s-8.97,20.51-22.15,20.51h-17.29v-41.02ZM833.02,451.93c10.14,0,16.64-6.21,16.64-15.41s-6.5-15.41-16.64-15.41h-11.08v30.82h11.08Z"/>
      <path class="cls-2" d="M859.08,453.34c0-2.34,1.82-3.98,3.98-3.98s3.87,1.64,3.87,3.98-1.76,4.04-3.87,4.04-3.98-1.7-3.98-4.04Z"/>
    </g>
  </g>
</svg>