<?xml version="1.0" encoding="UTF-8"?>
<svg xmlns="http://www.w3.org/2000/svg" viewBox="0 0 915 515">
  <defs>
    <style>
      .cls-1 {
        fill: #7bc043;
      }

      .cls-2 {
        fill: #f2e8d5;
      }

      .cls-3 {
        fill: #1b1f23;
      }
    </style>
  </defs>
  <rect class="cls-3" width="915" height="515"/>
  <g id="Layer_1" data-name="Layer 1">
    <g>
      <path class="cls-2" d="M326.14,140.47l4.44-4.26c4.88-4.68,9.41-9.49,13.23-15.1,6.5-9.57,10.27-20.53,10.93-32.21l-14.71-.02c-.59,0-1.37-.65-1.27-1.22.17-.63.88-1.05,1.2-1.66,1.61-3,1.28-6.42-.82-9.16-1.84-2.41-5.2-3.76-8.38-2.99-2.71.66-4.71,2.67-5.58,4.88-1.12,2.86-.78,5.89,1.02,8.12.32.4.7.62.61,1.1-.08.45-.5.85-1.13.85l-21.25-.02.04-21.51c3.24,3.66,8.05,3.84,11.56.87,3.87-3.75,3.49-10.38-1.09-13.49-2.75-1.86-6.46-1.45-8.97.5-.57.45-.9.94-1.65,1.19V22.62s5.05.27,5.05.27c16.5.88,32.84,10.04,43.4,22.67,5.5,6.57,9.64,13.91,12.11,22.1,5.35,17.81,3.45,36.54-5.32,52.9-3.67,6.85-8.35,12.87-13.68,18.48l-6.06,5.97-4.6,4.45-1.82,1.84c-7.04,7.14-12.48,16.26-12.09,26.71l-12.98.03c-.14-12.43,5.41-23.97,13.62-33.22l4.17-4.36h0Z"/>
      <path class="cls-1" d="M314.37,105.44c2.34,2.02,3.09,5.04,2.54,8.05-.48,2.58-2.43,5.07-5.22,6.1-3.52,1.31-7.17.16-9.77-2.62l-.02,9.36c0,.15-.12.33-.19.39-.43.33-1.73-3.62-5.71-5.25-3.2-1.31-6.48-.84-9.09,1.52-2.8,2.54-3.15,7.12-.82,10.1,1.34,1.72,3.06,2.57,5.2,3.09-1.47,3.77-3.19,7.19-5.2,10.65-4.47-1.02-8.41-2.65-12.34-4.76-9.14-4.91-16.68-11.88-22.76-20.27-6.5-8.98-10.71-19.19-11.68-30.32-1.67-19.24,3.53-34.82,16.77-48.78,12.09-12.76,27.7-19.49,45.32-20.03l.21,3.89.11,9.19c-11.82-.02-23.27,5.13-31.85,12.98l-3.66,3.65c-10.22,11.25-13.91,24.12-12.62,39.35,1.02,12.07,6.75,23.24,15.99,31.25l-5.48-8.41c-4.49-7.82-6.97-16.51-6.68-25.68l19.1.08c-1.64,1.73-2.62,3.61-2.45,5.9.05,2.83,1.83,5.22,4.15,6.22,2.71,1.17,5.6.57,7.68-1.38,3.03-2.96,3.16-7.59-.29-10.71l16.29-.1.03,17.58c3.33-3.6,8.65-4.31,12.45-1.04h0Z"/>
      <path class="cls-1" d="M318.31,206.76l-31.74-.03c-2.65,0-4.51-3-4.34-5.18.22-2.77,2.4-4.66,5.2-4.66l31.15.07c2.68,0,4.49,2.51,4.48,4.98-.02,2.38-1.89,4.82-4.76,4.82h0Z"/>
      <path class="cls-1" d="M322.14,184.48c1.27,1.36,1.52,3.41.78,5.1-.69,1.56-2.28,2.88-4.25,2.87l-32.14-.05c-2.55,0-4.23-2.51-4.26-4.77-.04-2.42,1.83-4.86,4.48-4.86l31.69-.06c1.51,0,2.64.63,3.71,1.77h0Z"/>
      <circle class="cls-1" cx="302.72" cy="218.49" r="8.52"/>
      <path class="cls-1" d="M175.54,167.79h-61.31v-26.67h147.92v26.67h-61.31v187.93h-25.29v-187.93Z"/>
      <path class="cls-1" d="M295.71,245.97h13.88v111.6h-13.88v-111.6Z"/>
      <path class="cls-1" d="M497.82,215.92c0,46.6-28.1,74.81-74.6,74.81h-44.2v65h-25.55v-214.61h69.75c46.5,0,74.6,28.21,74.6,74.81ZM472.27,215.92c0-30.66-17.12-48.13-49.82-48.13h-43.43v96.27h43.43c32.7,0,49.82-17.48,49.82-48.13Z"/>
      <path class="cls-1" d="M501.77,331.2l9.45-23.91c13.28,14.41,36.02,24.83,59.01,24.83,30.91,0,44.2-14.41,44.2-33.11,0-52.43-108.32-19.31-108.32-99.02,0-33.11,21.46-61.32,68.47-61.32,20.95,0,42.66,6.75,57.48,19.01l-8.43,24.53c-15.58-11.96-33.21-17.48-49.05-17.48-30.4,0-43.43,15.33-43.43,34.03,0,52.43,108.32,19.62,108.32,98.41,0,32.8-21.97,61.01-69.23,61.01-27.34,0-54.16-11.04-68.47-26.98Z"/>
      <path class="cls-1" d="M787.55,329.05v26.67h-129.78v-214.61h126.21v26.67h-100.66v65.91h89.67v26.06h-89.67v69.29h104.24Z"/>
      <path class="cls-2" d="M130.63,408.27c0-19.31,14.78-33,34.91-33,11.7,0,21.13,4.26,27.29,11.97l-11.42,10.34c-3.99-4.81-8.89-7.43-14.96-7.43-10.43,0-17.68,7.25-17.68,18.13s7.25,18.13,17.68,18.13c6.07,0,10.97-2.63,14.96-7.43l11.42,10.34c-6.17,7.71-15.59,11.97-27.29,11.97-20.13,0-34.91-13.69-34.91-33Z"/>
      <path class="cls-2" d="M242.84,427.67h-26.84l-4.99,12.33h-18.32l28.02-63.47h17.68l28.11,63.47h-18.68l-4.99-12.33ZM237.58,414.43l-8.16-20.31-8.16,20.31h16.32Z"/>
      <path class="cls-2" d="M270.69,376.53h17.95v49.23h30.28v14.23h-48.24v-63.47Z"/>
      <path class="cls-2" d="M347.94,434.29l5.89-13.24c5.62,3.72,13.6,6.26,20.94,6.26s10.34-2.09,10.34-5.17c0-10.06-36.09-2.72-36.09-26.29,0-11.33,9.25-20.58,28.11-20.58,8.25,0,16.77,1.9,23.03,5.53l-5.53,13.33c-6.07-3.26-12.06-4.9-17.59-4.9-7.53,0-10.25,2.54-10.25,5.71,0,9.7,36,2.45,36,25.84,0,11.06-9.25,20.49-28.11,20.49-10.43,0-20.76-2.81-26.75-6.98Z"/>
      <path class="cls-2" d="M423.71,390.77h-19.49v-14.24h56.85v14.24h-19.4v49.23h-17.95v-49.23Z"/>
      <path class="cls-2" d="M501.92,427.67h-26.84l-4.99,12.33h-18.32l28.02-63.47h17.68l28.11,63.47h-18.68l-4.99-12.33ZM496.66,414.43l-8.16-20.31-8.16,20.31h16.32Z"/>
      <path class="cls-2" d="M535.8,390.77h-19.49v-14.24h56.85v14.24h-19.4v49.23h-17.95v-49.23Z"/>
      <path class="cls-2" d="M628.98,426.13v13.87h-50.96v-63.47h49.78v13.87h-32.01v10.7h28.2v13.42h-28.2v11.61h33.18Z"/>
      <path class="cls-2" d="M665.34,376.53h17.95v49.23h30.28v14.23h-48.24v-63.47Z"/>
      <path class="cls-2" d="M765.37,427.67h-26.84l-4.99,12.33h-18.32l28.02-63.47h17.68l28.11,63.47h-18.68l-4.99-12.33ZM760.11,414.43l-8.16-20.31-8.16,20.31h16.32Z"/>
      <path class="cls-1" d="M95.44,487.82l1.92-4.04c2.69,2.44,7.31,4.2,11.97,4.2,6.27,0,8.96-2.44,8.96-5.6,0-8.86-21.97-3.26-21.97-16.74,0-5.6,4.35-10.36,13.89-10.36,4.25,0,8.65,1.14,11.66,3.21l-1.71,4.15c-3.16-2.02-6.74-2.95-9.95-2.95-6.17,0-8.81,2.59-8.81,5.75,0,8.86,21.97,3.32,21.97,16.63,0,5.54-4.46,10.31-14.04,10.31-5.54,0-10.99-1.87-13.89-4.56Z"/>
      <path class="cls-1" d="M127,473.83c0-10.62,8.19-18.55,19.33-18.55s19.22,7.88,19.22,18.55-8.19,18.55-19.22,18.55-19.33-7.93-19.33-18.55ZM160.37,473.83c0-8.03-6.01-13.94-14.04-13.94s-14.15,5.91-14.15,13.94,6.01,13.94,14.15,13.94,14.04-5.91,14.04-13.94Z"/>
      <path class="cls-1" d="M172.5,455.69h5.18v31.77h19.64v4.51h-24.82v-36.27Z"/>
      <path class="cls-1" d="M229.14,455.69l-15.91,36.27h-5.13l-15.96-36.27h5.6l13.06,29.8,13.16-29.8h5.18Z"/>
      <path class="cls-1" d="M259.95,487.45v4.51h-26.32v-36.27h25.6v4.51h-20.42v11.14h18.19v4.4h-18.19v11.71h21.14Z"/>
      <path class="cls-1" d="M265.29,488.7c0-2.07,1.61-3.52,3.52-3.52s3.42,1.45,3.42,3.52-1.55,3.58-3.42,3.58-3.52-1.5-3.52-3.58Z"/>
      <path class="cls-1" d="M323.32,468.33c0,7.88-5.7,12.64-15.13,12.64h-8.96v10.99h-5.18v-36.27h14.15c9.43,0,15.13,4.77,15.13,12.64ZM318.14,468.33c0-5.18-3.47-8.14-10.11-8.14h-8.81v16.27h8.81c6.63,0,10.11-2.95,10.11-8.13Z"/>
      <path class="cls-1" d="M353.94,491.96l-7.83-11.14c-.73.05-1.5.1-2.28.1h-8.96v11.04h-5.18v-36.27h14.15c9.43,0,15.13,4.77,15.13,12.64,0,5.6-2.9,9.64-7.98,11.45l8.6,12.18h-5.65ZM353.78,468.33c0-5.18-3.47-8.14-10.11-8.14h-8.81v16.32h8.81c6.63,0,10.11-3,10.11-8.19Z"/>
      <path class="cls-1" d="M392.64,487.45v4.51h-26.32v-36.27h25.6v4.51h-20.42v11.14h18.19v4.4h-18.19v11.71h21.14Z"/>
      <path class="cls-1" d="M428.4,468.33c0,7.88-5.7,12.64-15.13,12.64h-8.96v10.99h-5.18v-36.27h14.15c9.43,0,15.13,4.77,15.13,12.64ZM423.22,468.33c0-5.18-3.47-8.14-10.11-8.14h-8.81v16.27h8.81c6.63,0,10.11-2.95,10.11-8.13Z"/>
      <path class="cls-1" d="M455.79,482.89h-19.28l-3.99,9.07h-5.34l16.43-36.27h5.13l16.48,36.27h-5.44l-3.99-9.07ZM453.98,478.75l-7.82-17.77-7.83,17.77h15.65Z"/>
      <path class="cls-1" d="M493.96,491.96l-7.83-11.14c-.73.05-1.5.1-2.28.1h-8.96v11.04h-5.18v-36.27h14.15c9.43,0,15.13,4.77,15.13,12.64,0,5.6-2.9,9.64-7.98,11.45l8.6,12.18h-5.65ZM493.81,468.33c0-5.18-3.47-8.14-10.11-8.14h-8.81v16.32h8.81c6.63,0,10.11-3,10.11-8.19Z"/>
      <path class="cls-1" d="M532.66,487.45v4.51h-26.32v-36.27h25.6v4.51h-20.42v11.14h18.19v4.4h-18.19v11.71h21.14Z"/>
      <path class="cls-1" d="M538,488.7c0-2.07,1.61-3.52,3.52-3.52s3.42,1.45,3.42,3.52-1.55,3.58-3.42,3.58-3.52-1.5-3.52-3.58Z"/>
      <path class="cls-1" d="M563.44,487.82l1.92-4.04c2.69,2.44,7.31,4.2,11.97,4.2,6.27,0,8.96-2.44,8.96-5.6,0-8.86-21.97-3.26-21.97-16.74,0-5.6,4.35-10.36,13.89-10.36,4.25,0,8.65,1.14,11.66,3.21l-1.71,4.15c-3.16-2.02-6.74-2.95-9.95-2.95-6.17,0-8.81,2.59-8.81,5.75,0,8.86,21.97,3.32,21.97,16.63,0,5.54-4.46,10.31-14.04,10.31-5.54,0-10.99-1.87-13.89-4.56Z"/>
      <path class="cls-1" d="M597.32,476.31v-20.62h5.18v20.42c0,8.03,3.68,11.66,10.21,11.66s10.26-3.63,10.26-11.66v-20.42h5.03v20.62c0,10.52-5.75,16.06-15.34,16.06s-15.34-5.54-15.34-16.06Z"/>
      <path class="cls-1" d="M634.55,473.83c0-10.73,8.19-18.55,19.22-18.55,5.6,0,10.47,1.92,13.78,5.65l-3.37,3.26c-2.8-2.95-6.22-4.3-10.21-4.3-8.19,0-14.25,5.91-14.25,13.94s6.06,13.94,14.25,13.94c3.99,0,7.41-1.4,10.21-4.35l3.37,3.26c-3.32,3.73-8.19,5.7-13.84,5.7-10.99,0-19.17-7.82-19.17-18.55Z"/>
      <path class="cls-1" d="M670.08,473.83c0-10.73,8.19-18.55,19.22-18.55,5.6,0,10.47,1.92,13.78,5.65l-3.37,3.26c-2.8-2.95-6.22-4.3-10.21-4.3-8.19,0-14.25,5.91-14.25,13.94s6.06,13.94,14.25,13.94c3.99,0,7.41-1.4,10.21-4.35l3.37,3.26c-3.32,3.73-8.19,5.7-13.84,5.7-10.99,0-19.17-7.82-19.17-18.55Z"/>
      <path class="cls-1" d="M735.29,487.45v4.51h-26.32v-36.27h25.6v4.51h-20.42v11.14h18.19v4.4h-18.19v11.71h21.14Z"/>
      <path class="cls-1" d="M768.1,487.45v4.51h-26.32v-36.27h25.6v4.51h-20.42v11.14h18.19v4.4h-18.19v11.71h21.14Z"/>
      <path class="cls-1" d="M774.59,455.69h15.29c11.66,0,19.59,7.36,19.59,18.14s-7.93,18.14-19.59,18.14h-15.29v-36.27ZM789.56,487.45c8.96,0,14.72-5.49,14.72-13.63s-5.75-13.63-14.72-13.63h-9.79v27.26h9.79Z"/>
      <path class="cls-1" d="M812.61,488.7c0-2.07,1.61-3.52,3.52-3.52s3.42,1.45,3.42,3.52-1.55,3.58-3.42,3.58-3.52-1.5-3.52-3.58Z"/>
    </g>
  </g>
</svg>